<?xml version="1.0" encoding="utf-8"?>
<!-- Generator: Adobe Illustrator 24.0.0, SVG Export Plug-In . SVG Version: 6.00 Build 0)  -->
<svg version="1.1" id="Layer_1" xmlns="http://www.w3.org/2000/svg" xmlns:xlink="http://www.w3.org/1999/xlink" x="0px" y="0px"
	 viewBox="0 0 344.1 363" style="enable-background:new 0 0 344.1 363;" xml:space="preserve">
<style type="text/css">
	.st0{fill:#F26821;}
	.st1{fill:#107C3E;}
	.st2{fill:#415862;}
	.st3{fill:#405761;}
	.st4{fill:#425862;}
	.st5{fill:#445A64;}
	.st6{fill:#415861;}
	.st7{fill:#455C65;}
	.st8{fill:#F28B24;}
	.st9{fill:#F28C25;}
	.st10{fill:#F28B25;}
	.st11{fill:#F28D28;}
	.st12{fill:#FDF5ED;}
	.st13{fill:#F39436;}
	.st14{fill:#FADFC3;}
	.st15{fill:#F28C26;}
	.st16{fill:#F3902E;}
	.st17{fill:#FEFBF9;}
	.st18{fill:#FDF4EC;}
	.st19{fill:#FDF8F2;}
	.st20{fill:#F39231;}
	.st21{fill:#FEFBF8;}
	.st22{fill:#FCF0E3;}
	.st23{fill:#FCEFE3;}
	.st24{fill:#F39132;}
	.st25{fill:#F39335;}
	.st26{fill:#FDF3E9;}
	.st27{fill:#FEFAF6;}
	.st28{fill:#FEF9F6;}
	.st29{fill:#FDF3EA;}
	.st30{fill:#FCE7D7;}
	.st31{fill:#FCEEE4;}
	.st32{fill:#FDF4EE;}
	.st33{fill:#F39336;}
	.st34{fill:#F59F5E;}
	.st35{fill:#FADBC1;}
	.st36{fill:#F7B385;}
	.st37{fill:#FAD5B4;}
	.st38{fill:#FBE4D0;}
	.st39{fill:#FADABE;}
	.st40{fill:#F59965;}
	.st41{fill:#169246;}
	.st42{fill:#F8FBF9;}
	.st43{fill:#F2F8F4;}
	.st44{fill:#F2F8F5;}
	.st45{fill:#F3F9F5;}
	.st46{fill:#EEF6F1;}
	.st47{fill:#EBF5EF;}
	.st48{fill:#E5F2EA;}
	.st49{fill:#E6F1EB;}
	.st50{fill:#2B9B56;}
	.st51{fill:#C2E1CE;}
	.st52{fill:#419C65;}
	.st53{fill:#78BC92;}
	.st54{fill:#FDF7F1;}
	.st55{fill:#FEFAF7;}
	.st56{fill:#FCEEDF;}
	.st57{fill:#FDF6EF;}
	.st58{fill:#FDF2E7;}
	.st59{fill:#FCECDD;}
	.st60{fill:#FCEDDE;}
	.st61{fill:#FCEDDF;}
	.st62{fill:#FCE7D5;}
	.st63{fill:#FDF2E8;}
	.st64{fill:#FDF1E6;}
	.st65{fill:#F7FBF9;}
	.st66{fill:#F1F8F4;}
	.st67{fill:#F7FBF8;}
	.st68{fill:#F1F8F3;}
	.st69{fill:#F4F9F6;}
	.st70{fill:#E9F4ED;}
	.st71{fill:#E7F3EC;}
	.st72{fill:#E9F4EE;}
	.st73{fill:#F6FAF8;}
	.st74{fill:#E6F3EB;}
	.st75{fill:#ECF6F0;}
	.st76{fill:#EEF7F1;}
	.st77{fill:#F3F9F6;}
	.st78{fill:#EFF7F2;}
	.st79{fill:#F5FAF7;}
	.st80{fill:#249951;}
	.st81{fill:#249851;}
	.st82{fill:#1B954A;}
	.st83{fill:#1D964C;}
	.st84{fill:#1D954B;}
	.st85{fill:#279A53;}
	.st86{fill:#20974E;}
	.st87{fill:#169346;}
	.st88{fill:#1E974D;}
	.st89{fill:#2D9D58;}
	.st90{fill:#1C954A;}
</style>
<title>sih</title>
<g id="Layer_2_1_">
	<g id="Layer_1-2">
		<path class="st0" d="M74.8,113.5c-1.5-4.5-1.7-9.3-0.4-13.9c1.3-5.2,5-8.3,8.3-11.8s8.5-3.1,12.8-5.3c0.3-1.4,0.8-3,1.1-4.6
			c1.6-7.7,8.7-15.3,16.2-17c2.2-0.5,4.5,0,6.8-0.2c2-0.1,3.9-0.5,5.7-0.8c3-5.6,7.4-8.3,13.3-8.7c4.1-0.2,7.9,0.4,11.3,3.1
			c2.4,2,4.3,4.5,5.5,7.3c2,4,2,8.1,2,12.3c0,23.6,0,47.2,0,70.8c2.2,12.6,0.8,25.2,1,37.8s0.1,25.5,0,38.3
			c0.1,4.3-0.6,8.7-2.2,12.7c-3.1,7.1-4.5,9.2-12.1,10.7c-1.5,0.3-2.6,1.5-4.6,0.7c-3.5-1.4-7.3-2-10-5c-0.9-1-2-2-3.1-3.1
			c-7,2.2-14.2,2-20.6-2.1s-9.3-10.2-10.4-17.6c-6.6-1.7-12.7-4.5-16.5-10.3c-2.6-4-4.5-5.8-3.3-19.1c-1.6-1.2-3.4-2.4-5.2-3.7
			c-5.3-4.3-8.4-10.7-8.5-17.4c0-6.4,1.3-10.5,5.3-15.8c-0.1-0.5-0.1-1.3-0.5-1.8c-4.4-4.9-6.1-11.5-4.6-17.9
			c1.2-5.4,2.9-11.2,8.9-14C72.3,116.6,73.3,115.1,74.8,113.5z M124.8,68.2c-0.1-1.6-1.3-0.9-2.1-1c-1.3-0.1-2.5,0.3-3.7-0.9
			c-0.4-0.4-2.3-1-2.6,0.9c-2,0.4-4,0.8-6,1.3c-0.2,0-0.2,0.5-0.3,0.8l-1,1.1c-3.2,1.5-4,5.1-6.3,7.4c-0.2,0.2,0,0.7,0,1
			c0,3.9-0.4,7.8,1,11.6h-3.1c-0.8-0.2-1.5-0.5-2.3-0.7s-1.3-0.2-1.9-0.3h-1l-1,1c-1.3,0-2.7-0.1-4,0c-0.4,0-0.8,0.7-1.3,1h-1
			C86.5,93.2,84.7,95,83,97c-0.8,1-2.1,2.2-2,3.2c0.3,2.2-1.4,3.7-1.2,5.7c-0.2,2.7,1.2,5,2.1,7.3l4.4,5.2c-1.9,0-3.6-0.1-5.2,0
			c-0.4,0-0.9,0.7-1.3,1c-1.9,0.9-3.7,2.2-6,2.3c-0.1,0-0.2,0.5-0.3,0.8c-1.9,0.3-0.6,1.9-1.1,2.7c-0.7,1-2.3,1.5-2,3.1
			c0,0.2,0,0.3,0,0.5c-1.4,0.2-2.4,1.5-2.1,3c0,0.1,0,0.1,0,0.2c-0.3,5.6,2,10.3,5.3,14.7l2.1,1.1c0.9,1.4,2.5,2.2,4.2,2.1v1.1
			c-2.6,0.1-4.5,1.5-6.3,3.1c-2.1,2.4-3.1,5.4-4.3,8.3c-0.7,1.8-1.4,3.6-0.9,5.3c1.2,3.7,2.4,7.5,5.2,10.5c0.1,0.3,0.2,0.8,0.3,0.8
			c2.3,0.1,4,1.4,6,2.3l2.1,1.1h3c-0.2,0.8-0.4,1.5-0.7,2.3c-0.9,2.7-3.2,5-2.4,8.2c-1.4,0-1,1.1-1,1.8c0,1.7,1.1,4.3,3.1,7.6v1.1
			c0.8,0.7,1.7,1.3,2.5,2l2.7,2.2c0.1,1.6,1.3,0.9,2.1,1.1l3.2,1.1l2.1,1l5.3-1l1,1v11.5l7.3,7.3c0.1,0.3,0.2,0.8,0.3,0.8
			c2,0.5,4,0.9,6,1.3h2.1c2.3,0.2,4.6-0.6,6.3-2.1h1l3.8-3c1.2,0.6-0.7,2.8,1.5,3c-0.2,1.5,0.1,3,1,4.2c2.3,3.2,5.6,4.3,9.4,4.2
			c2.3,0.2,4.6-0.6,6.3-2.1v-1c2-2.5,3.1-5.6,3.1-8.8c0-10.4,0-20.8,0-31.3c0-2-0.5-4,0.9-5.9c0.4-0.5,1.1-2.7-0.9-3.3
			c0.1-2.6-0.4-5.2,1-7.7c0.3-0.6,0.4-1.8-1-1.8v-1c0.1-2.1-0.4-4.2,0.9-6.2c0.4-0.6,1.1-2.7-0.9-3.2c0.1-2.6-0.4-5.2,1-7.7
			c0.3-0.6,0.4-1.8-1-1.8c0.1-2.6-0.4-5.2,1-7.7c0.3-0.5,0.4-1.8-1-1.8v-1c0-7.4,0-14.9,0-22.3c0-2-0.5-4,0.9-5.9
			c0.4-0.5,1.1-2.7-0.9-3.3c0.2-2.4-0.6-4.9,0.9-7.3c0.4-0.6,1.1-2.7-0.9-3.3c0.4-1.9-0.5-3.8,0.8-5.8c0.7-1,1.2-3.4-0.8-4.7
			c0.2-2.4-0.6-4.9,0.9-7.3c0.4-0.6,1.1-2.7-0.9-3.2c-2.3-2.6-3.5-6.1-3.2-9.6c0.3-4.1,0.1-8.3,0.1-12.4l-1-1h-1.1
			c-1.8-0.5-3.1-2.3-5.3-2.1h-2.1c-1,0.2-2.1,0.6-3,1.1c-1.1,0.7-2.9,0.3-3.3,2l-1,2.1c-2.1,2-2,4.8-2.2,7.4l-3-2.2L124.8,68.2z"/>
		<path class="st1" d="M265.3,129.1c-1.1,2.1,1.7,4.4,0.9,7.1c-0.8,2.5-0.9,5.2-1.9,7.6s-2.6,4.5-4,6.8c5.1,9.3,5.7,6.3,5.1,21.1
			c-2.7,6.8-6.4,11.8-12.6,15.1c0,2.7,0,5.4,0,8.2c0,8.6-7.2,18.5-15.4,21c-1,0.1-2,0.1-2.9,0l-2.5,2.4c-0.2,4.6-2.4,8.3-5.4,11.8
			c-2.3,2.7-5.8,4.8-10.8,6.8c-4.6,1.8-8.9,1.1-13.3-0.1c-2.3,1.7-4.6,3.4-6.8,5.2c-1.7,1.6-4.1,2.4-6.4,2.2
			c-0.7-0.1-1.5,0.6-2.1,0.8l-6.4-1.2c-5.8-2.7-8.7-7.8-10.6-13.7c-0.2-1-0.3-2-0.2-3c0-51.6,0-103.1,0-154.6
			c0.1-4,0.9-7.9,2.4-11.6c1.5-4.1,8.8-10.8,14.6-9.9c1.5,0.1,3.1,0.1,4.6,0c5.7,1.7,8.7,6,12.6,9.5c6.7-0.5,13.4-0.3,19,4.3
			c5.3,4.2,8.5,10.5,8.8,17.3c21.4,4,24.3,19.3,20.8,31.4C258.6,117.3,263,122.7,265.3,129.1z M224.5,77.6l-2.2-1.9
			c-0.6-0.4,1-2.1-1-2.3l-4.2-4.2c-3.9-2.9-8.4-2-12.7-2.1c-0.9,1.7-3.4,0.1-4.1,2.1h-1c0.1-2-1.6-3.2-2-4.8
			c-0.9-3.4-3.4-4.7-6.2-6.1c-1.9-1-3.7-0.2-5.4-0.6c-0.8,0.2-2-0.5-2.1,1l-4.6,4c-0.8,2.1-1.6,3.3-1.6,4.6
			c-0.1,4.7-1.6,9.3-1.2,14.1c0.4,5,0.1,10.1,0.1,15.1v115.4c0,2.3,0,4.5,0,6.8c0,4.1-0.5,8.2,1.1,12.1c1.1,3.1,3.6,5.2,5.8,7.3h7.3
			c1.4-0.9,2.7-1.9,3.9-3c1.1-1.4,2.2-3,3.1-4.6v-4.4l4,2.6c0.2,0.4,0.5,0.7,0.8,1c0.4,0.4,0.8,0.7,1.3,1.1c0,0.2,0,0.5,0,0.5
			c4.8,1.4,10.6,0.4,15.7-2.6c1.7-0.9,3.3-1.9,3.1-4.2c2.2-1.7,2.6-4.4,3-6.7s-0.5-5.1-0.9-8c0.9,0,1.8,0.1,2.7,0.2
			c0.8,0.2,1.6,0.9,2.2,0.8c3-0.6,6.3-0.7,8.7-2.7c2-1.6,5-2.3,5.5-5.4c1.5-0.1,2.1-0.9,1.8-2.3c1.4-3.7,1.4-7.8,0-11.5
			c-0.4-1-0.7-2.1-1.1-3.2l-3.7-3c0.8,0,1.7,0,2.5-0.1c2.9-0.8,6.2-0.7,8.6-2.8c1.8-1.8,3.5-3.6,5.2-5.6l1-1c0.2-1,0.4-2,0.6-3
			l-1.6-0.4v-11.9l-3.3-3.6l-5.3-3.6c6.7-4.6,6.5-1.8,11.4-15.3c-0.4-1.4-0.6-2.3-0.9-3.2v-2.1c-1.7-3.1-4-5.9-6.7-8.2
			c-1.1-1-2.4-1.7-3.8-2.2c-2.1-0.6-4.2-1-6.3-1.3l2.1-2.9c3.9-4.2,3.1-9.3,3.1-14.3c-1.8-1-1.1-3.7-3.1-4.6
			c-1.2-2.6-3.5-4.1-5.8-5.2c-2.5-1.2-5.1-1.9-7.9-2c-2.4,0-4.7,1.2-8.1,2.2c0.8-1,1.5-2.1,2.2-3.3c0.3-0.7,0.6-1.5,0.7-2.3
			C226.3,83.1,224.4,80.5,224.5,77.6z"/>
		<path class="st2" d="M209.8,262.1c-1.6,4.6-4.5,5.5-8.4,5.5c-22.7-0.1-45.4,0-68,0c-5.7,0-7.2-1.1-9.5-6.9
			c2.4-5.8,3.8-6.8,9.6-6.8c22.3,0,44.7,0,67,0c1.5-0.2,3,0,4.5,0.6c4,1.8,4.9,2.6,5,6.8C209.9,261.5,209.8,261.8,209.8,262.1z"/>
		<path class="st3" d="M194.6,313.7l3.7,3.7v3.5c-1.5,4.5-4.5,5.5-8.4,5.5c-16.6-0.1-33.2,0-50.1,0c-1.5-1.9-3.1-4-4.6-6l2.7-5.4
			c1.7-1.5,4.1-1.2,6.5-1.2H194.6z"/>
		<path class="st4" d="M191.9,304.5v-12.7h-9.3v14.4h-6l-1.4-1.4v-30.7c2.3-0.5,4.7-0.1,7.2-0.3v12.4h9.5V274h7.3v32.1h-5.9
			L191.9,304.5z"/>
		<path class="st4" d="M154,283.2h-7v-4.9h-8.4v5.4l15.6,10.1v10.2l-3.8,2.5c-6.2-0.5-12.8,1-19.2-1.5V295h5.9l1.5,1.5v5.5h8.1v-6.7
			l-15.4-9.9v-10.7c1-0.4,2.1-0.7,3.2-0.9c6.1-0.1,12.2,0,18.2,0l1.4,1.4L154,283.2z"/>
		<path class="st4" d="M242.1,231.8l1.2-4.6l3.3-1.6c2.7,0,4.2,1.6,5.7,3.2c5.5,5.6,11.1,11.1,16.6,16.7c1.5,1.6,2.8,3.4,4.1,5.1
			l-2.5,4.3h-5.3L242.1,231.8z"/>
		<path class="st4" d="M269.6,44.1c0.9,2,1.7,3.8,2.4,5.5c-7.2,7.2-14.1,14.1-21,21c-1.6,1.6-3.3,2.8-5,3l-4.8-4.7
			c0-1.3,1-3.1,2.6-4.7c5.8-5.8,11.6-11.6,17.4-17.4C263.5,44.4,264.7,44.1,269.6,44.1z"/>
		<path class="st2" d="M311.3,154.2c-9.5,0-18.8,0.1-28,0c-2-0.1-4-0.4-6-0.8c-0.6-2-1.1-3.9-1.7-5.8l3.3-2.8c0.3,0,0.7-0.1,1-0.1
			c9.2,0,18.4-0.1,27.6,0c1.9,0.1,3.9,0.4,5.8,0.8c0.3,1.3,0.5,2.2,0.8,3.2c0.1,0.3,0.4,0.5,0.6,0.8L311.3,154.2z"/>
		<path class="st4" d="M50.1,145.8l3.2,4.3l-1.2,3.9c-1.3,0.6-2.8,0.9-4.2,1.1c-10.2,0.1-20.5,0.1-30.9,0.1l-2.5-4.3l1.6-4.1
			c1.6-0.5,3.3-0.8,5-1c8.7-0.1,17.4,0,26.1,0L50.1,145.8z"/>
		<path class="st4" d="M163.8,1.9l5,3.5V36l-2.1,3.6c-3.9,0.3-3.9,0.3-7.1-1.2v-34L163.8,1.9z"/>
		<path class="st5" d="M147.8,330.7h37.9c-1.6,6.5-7.5,8.2-12.2,11.3c-11.2,0.2-14.2-0.2-17.5-2C154.2,338.8,149,333.1,147.8,330.7z
			"/>
		<path class="st2" d="M56.7,50.9v-3.3l2.8-2.5h4c0.3,0.3,0.7,0.6,1,0.9C70.7,52,77,57.9,83.2,63.9c1.4,1.6,2.8,3.2,4,5
			c-1.9,3.8-1.9,3.8-5.6,5.9c-1.8-1.3-3.6-2.7-5.3-4.2C69.7,64.1,63.2,57.5,56.7,50.9z"/>
		<path class="st6" d="M63.3,256h-3c-0.8-0.8-1.7-1.7-2.8-2.9l1.2-5c3.3-1.4,5.3-4.4,7.7-6.7s5-4.9,7.4-7.4l7.4-7.4h3.5
			c1.1,1.5,2.3,3.3,3.3,4.6L63.3,256z"/>
		<path class="st7" d="M161.9,306.2l-1.3-1.3v-30.6c2.3-2.9,5.3-0.7,8.1-1.9v33.8H161.9z"/>
		<path class="st8" d="M151.1,176.3c1.4,0,1.3,1.2,1,1.8c-1.4,2.5-0.9,5.1-1,7.7c-3.2-2.7-6.6-5.2-9.6-8.1c-2.9-2.8-6-5.3-9.3-7.6
			l-1-1.1l-1.1-1l-1-1.1l-2.1-1.1l-1-1l-1-1.1l-1-1c-2.4-2.3-5-4.5-7.3-6.8c-1.5-1.6-3.3-2.8-5.3-3.7v-1l-1-1.1l-1-1.1l-1-1H107
			l-2.1-2.1c-0.2-0.8,0.5-2-1.1-2.1v-5.2c1.7-0.2,1-1.5,1-2.4c0.1-9,0-18,0-27v-1l1-1v-2.1l-1-1l-1.1-1h-1l-1,1
			c-2,0.5-0.7,2.1-1,3.2l1,1v68.2l-4.2,4.2l-1,1.1l-1,1.1l-1,1c-3.5,2.6-7.1,5-9.9,8.4c-0.7,0.8-1.9,1.1-2.9,0.7
			c-0.8-3.2,1.5-5.5,2.4-8.2c0.3-0.8,0.5-1.5,0.7-2.3h1l0.3,0.9l0.7-0.9l1-1.1c3.1-2.8,6.3-5.3,10.4-6.2v-3.9c-3-2-4.1-1.9-5.1,0.7
			c-0.8,2.1-0.8,2.1-3.3,3.9c0.7-10.5-0.9-20.8,1.2-30.8c-2.9-1.8-2.9-1.8-5.7,0.6l2.5,6.8c0,6.4-0.1,13.6,0,20.8
			c0.2,2.8-0.5,5.7-2,8.1c-0.8,0.2-2-0.5-2.1,1.1h-2.1c1.2-1.4,1.1-3.1,1.1-4.8c0-18.6,0-37.2,0-55.8c0-0.8-0.1-1.6-0.2-2.4h-3
			c0.4-0.3,0.8-1,1.3-1c1.6-0.1,3.3,0,5.2,0l-4.4-5.2c1.3-1.5,2.3-3.2,3-5l-2.6-3.7l-2.4,1.3c-0.2-2,1.5-3.6,1.2-5.7
			c-0.1-1,1.2-2.2,2-3.2c1.7-2,3.4-3.8,5.2-5.8c0,12.6,0,25.1,0,37.7c0,1.8,0.1,3.6-1,5.4c-0.8,1.3-0.9,3.1-1.2,4.6l1.5,1.5h3.8
			c0-1.4,0.4-2.7-0.1-3.7c-1.6-3.3-0.9-6.7-1-10.1c-0.1-11,0-22-0.1-33c0-0.8,0.7-2.2-1-2.4c0.4-0.3,0.8-1,1.3-1c1.3-0.1,2.7,0,4,0
			c-0.2,4.6,1.3,9,1.1,13.7c-0.3,12.2-0.1,24.5-0.1,36.7c0,2.1,0.1,4.2,0,6.3s-0.7,3.9-1,5.9l-1,5.9c1.2,2.5,3.2,2,5.6,1.6
			c-0.5-2.7-1.3-5.1-1.3-7.6c-0.2-8.9,0.1-17.8-0.1-26.7s-0.7-17.5-1-26.3c-0.1-3.5,0-7,0-10.5c0.6,0.1,1.3,0.2,1.9,0.3
			s1.5,0.5,2.3,0.7c0.2,0.8-0.5,2,1,2.1c0.2,0.3,0.5,0.7,0.8,1c1.1-0.7,2.9-0.4,3.4-2.1c-0.4-1.7-0.8-3.4-1-5.2
			c-0.2-2,0-4.1-0.1-6.1c-0.1-0.4-0.2-0.9-0.4-1.3h-1.7c0-0.3-0.2-0.8,0-1c2.3-2.3,3.1-5.9,6.3-7.4c0,8,0.2,16.1,0,24.1
			c-0.3,11.6,1.1,23.2-1,34.6c0,0.3,0.2,0.6,0.3,0.9l3,1.3l1.6-1.2c-0.3-5.2-0.7-9.8-0.7-14.3c-0.1-14.7,0-29.3,0-44
			c0-0.8-0.1-1.6-0.2-2.4h-1.9c0.1-0.3,0.2-0.8,0.3-0.8c2-0.5,4-0.9,6-1.3c0,2.3,0.2,4.5,0,6.8s-0.8,4.4-1.1,6.4
			c3,1.8,3,1.8,5.8-0.6l-2.3-6.1l-0.5,0.1v-6.6h-1.8c0.3-1.9,2.2-1.3,2.6-0.9c1.2,1.2,2.4,0.8,3.7,0.9l1,1l0.8,1l1.3-1l3,2.2
			c0.2-2.7,0.1-5.5,2.2-7.4v23.3l19.9,21.4v-3.7c2,0.6,1.3,2.7,0.9,3.3c-1.5,2.4-0.7,4.8-0.9,7.3c-0.6-0.3-1.1-0.7-1.6-1.1
			c-3.4-3.6-7-7-10.1-11c-4.1-5.2-10-8.9-12.7-15.6L123,88v3.6c1.1,2.5,3.2,1.3,4.6,1.8c2.8,2.3,3.8,5,3.7,8.5
			c-0.2,9.3-0.1,18.5,0,27.8c0,0.8-0.8,2.2,1,2.4l4.2,4.2c0.5,0.8,1.2,1.6,1.9,2.4c4.1,3.4,8.3,6.7,12.8,10.4v-2.3
			c1.4,0,1.3,1.2,1,1.8c-1.4,2.5-0.9,5.1-1,7.7c-2.8-2.3-5.9-4.4-8.5-7c-3.2-3.2-6.7-6.1-10.4-8.7c-1-1.1-2-2.1-3.1-3.1
			c-0.7-0.7-1.8-1.2-2.1-1.9c-0.6-1.9-1-3.8-1.1-5.8c-0.1-5.6-0.1-11.2,0-16.8c0-4-0.5-8.1,2-11.7c0.4-0.6,0.1-1.7,0-2.6
			c-0.1-0.3-0.2-0.6-0.3-0.8l-3.3-1.4l-1.6,2c-0.2,0.9-0.2,1.7,0,2.6c1.7,4.3,0.9,8.8,1,13.2c0.1,5.9,0.1,11.9,0,17.8
			c-0.1,2.9,1.3,5.7,3.6,7.4c1.2,0.8,2.5,1.6,3.8,2.3c1,1.1,1.7,2.7,3,3.4c2.6,1.4,4.4,3.6,6.5,5.6c3,2.7,6.1,5.3,9.2,7.8
			c0.2,0.1,0.6-0.1,1.3-0.2v-1.9c1.4,0,1.3,1.2,1,1.8c-1.4,2.5-0.9,5.1-1,7.7c-2.6-1.8-5.1-3.8-7.4-5.9c-2.9-2.8-6.1-5.4-9.4-7.7
			c-1.7-1.5-3.4-3.1-5.1-4.6c-1.6-1.5-3.3-2.9-5-4.2c-3.8-2.4-6-6.7-5.7-11.2c0.4-11,0.1-22,0.1-32.8c1.7-2,2.6-4.1,1.9-6.6
			c-2.5-1.8-2.5-1.8-5.3,0.4c0.5,1.9,0.9,3.8,1.2,5.7c0.2,2.3,0,4.5,0,6.8v33.1c1.7,1.8,3.6,4,5.7,6c0.8,0.8,2.1,1.1,2.8,1.9
			c2.4,2.6,5.2,4.9,8.3,6.6c1.2,2.8,4.1,3.8,6.2,5.7c3.8,3.3,7.5,6.7,11.7,10.4v-3.4c2,0.6,1.3,2.6,0.9,3.2c-1.3,2-0.8,4.1-0.9,6.2
			c-2-0.8-3.8-2-5.3-3.7c-1-1.2-2.1-2.3-3.4-3.3c-4.3-2.7-7.7-6.5-11.6-9.7s-7.4-6.6-11.1-9.9c-0.3-0.2-0.5-0.6-0.8-0.7
			c-3.3-1-4.4-3.8-5.7-6.5c-0.5-0.8-1.1-1.6-1.8-2.3l-3.3,1.4v3.9c2.1,1.3,2.1,1.3,4.2,1.5c2.2,1.5,4.3,3.1,6.3,4.9
			c4.8,4.6,9.9,8.7,15,12.9c5.7,4.7,11.2,9.7,17.3,15.1L151.1,176.3z"/>
		<path class="st9" d="M131.1,229.8c-2.1-0.2-0.2-2.5-1.5-3l-3.8,3v-61.9h1l4.2,3.5c0,6.7,0.1,13.2,0,19.6s0.7,13-0.8,17.8l1.3,3.4
			l3.8-1.9c-0.1-1.1,0.2-2.6-0.4-3.4c-2.1-2.5-1.7-5.4-1.7-8.2c0-3.7,0-7.3,0-11v-13.9l5.2,3.7c0,4.6-0.3,9,0.1,13.3
			s-1.6,8.3-1.1,12.4l2.2,0.9l3.5-2.4l-2.4-5.3v-15.9c2.9,0.6,4.2,2.6,5.1,5.1c-0.4,10.3,0.9,20.8-1.2,31l1.9,1.7l3.8-2l-2.3-5
			c0-8.3,0-16.3,0-24.3c0-0.1,0.2-0.1,0.1-0.1l2.8,1.2v-2.5c2,0.6,1.3,2.8,0.9,3.3c-1.4,1.9-0.9,3.9-0.9,5.9
			c-0.1,10.4,0,20.8,0,31.3c0,3.2-1.2,6.3-3.2,8.8c0-2.3-0.3-4.6,0.1-6.7s1.5-4.2,2.4-6.6l-3.8-1.8l-3.5,3.8l2.5,1.7
			c0.4,3.9-0.1,7.3,0.4,10.6h1.9c-1.7,1.6-4,2.3-6.3,2.1v-11.5l1-3.3L141,220l-3.5,1.4h-2.1c-1.9-1.3-3.7-1.9-5.3,0.8
			C130.4,224.5,130.8,227.1,131.1,229.8z"/>
		<path class="st10" d="M124.8,229.8c-1.7,1.5-4,2.3-6.3,2.1v-45c0-2.9-0.4-5.8,2-8.1c0.3-0.3,0-1.3,0-2l-1.4-1.4h-4
			c0.5,3.1,0.9,6,1.3,8.9c-1.5,1.1-3,2-4.2,3c-3.7,3.3-7.4,6.6-11,10c-0.5,0.4-1.2,0.6-1.6,1.1c-3.4,3.2-7.4,5.8-10.4,9.4l-2.7-2.2
			c-0.8-0.7-1.7-1.3-2.5-2h1c3.6-1.8,6.2-4.7,9-7.4c2.5-2.6,5.2-4.9,8.1-7c3.5-2.4,6.6-5.4,9.1-8.8c1.4,0,1-1.1,1-1.9
			c0-6.4,0-12.9,0-19.4c0-1.3,0.1-2.6,0.2-4c1.5,1.4,2.8,2.6,4.3,4c-0.4,3.9-0.8,7.8-1.2,11.4l1.9,1.1l3.5-2.5l-2.6-6
			c1.8-1.1,3,0,4.3,0.6l1,3.1v30.3c0,10.1,0,20.2,0,30.3C123.8,228.2,123.1,229.6,124.8,229.8z"/>
		<path class="st11" d="M151.1,114.4c2,0.6,1.3,2.8,0.9,3.3c-1.4,1.9-0.9,3.9-0.9,5.9c-0.1,7.4,0,14.9,0,22.3l-3.1-2.4v-12.8
			l2.1-2.1v-3.2l-3.5-1.7l-1.4,1.6c0.3,5.5,0.7,10.8,1,16.2c-2.2-1.7-5.1-2.2-5.5-4.9l2.3-5.2c-1.6-2.7-3.5-2.3-5.5-1.9v4l-0.5,1.1
			l-3.7-4.3c0-4.9-0.1-9.8,0-14.6s-0.4-9.9,0.3-14.9c2.5,0.6,4.3,2.6,4.7,5.2c0.6,3.3,0.1,6.9,0,10.4c-1.8,1.6-0.4,3.5-0.9,5.1
			l1.9,1.7l3.4-1.7v-3.5l-1.9-1.5V109c2.5,0.5,3.4,2.7,5.3,3.9c-0.4,2.6-0.9,5.2-1.3,7.8c0,0.3,0.2,0.6,0.6,1.3l2.6,0.9l2.3-1.7
			l-1.2-5.1l2.1,1.7L151.1,114.4z"/>
		<path class="st12" d="M89.2,207.7c3.1-3.6,7-6.2,10.4-9.4c0.5-0.4,1.2-0.6,1.6-1.1c3.7-3.3,7.3-6.7,11-10c1.2-1.1,2.7-1.9,4.2-3
			c-0.4-2.9-0.9-5.8-1.3-8.9h4l1.4,1.4c0,0.7,0.3,1.7,0,2c-2.4,2.3-2,5.2-2,8.1v45h-2.1c0-14.5,0-29,0-43.4c0-0.1-0.2-0.3-0.3-0.4
			c-0.2-0.2-0.5-0.3-0.8-0.4l-2.9,2.5c-0.3,1.3-0.6,2.1-0.7,2.9c-0.2,1.3-0.9,3-0.3,3.8c1,1.3,0.7,2.6,0.8,3.9c0,9.2,0,18.5,0,27.7
			c-0.1,0.5-0.2,0.9-0.4,1.4h-1.7c0-10.9,0-21.9,0-32.9c0-1.6,0.1-3.1-2-3.8l-4.3,5.7c0,2.1,0,3.8,0,5.5s-0.1,3.7-0.2,5.5h-1.9
			c0-1.7,0.1-3.4,0-5.1s0.4-3.6-0.3-5.3l-3.7,3.5c-0.5,2.8,0.7,5.6-1.2,8l-2.1-1v-4.9l-3.2,3.9C90.5,208.6,89.3,209.3,89.2,207.7z"
			/>
		<path class="st11" d="M83.9,202.5c-2-3.3-3.1-5.9-3.1-7.6c0-0.8-0.4-1.8,1-1.8v3.6c2-1.5,3.6-2.6,5-3.9c3.6-3,7.1-6.1,10.7-9.1
			l1-1l1.1-1.1l1-1.1l1-1l1-1.1l1-1v-1.1c0.3-0.1,0.8-0.2,0.8-0.4c0-3.6,0-7.2,0-10.8c0-0.1-0.6-0.2-0.8-0.4v-8.4
			c2-0.6,0.6-2.3,1.1-3.4s-1-2.5,1-2.9l2.1,1.1c1.1,1.3,1.1,2.7,1.1,4.3c0,8.4,0,16.7,0,25.1c-3.8,3.3-7.6,6.6-11.4,9.9
			c-1.1,1-2.4,1.8-3.5,2.7c-1.5,1.4-3,2.8-4.5,4.2s-2.8,2.6-4.3,4L83.9,202.5z"/>
		<path class="st11" d="M132.2,60.8c0.4-1.7,2.2-1.3,3.3-2c0.9-0.5,2-0.9,3-1.1v25L151.1,97v-3.6c2,1.3,1.5,3.7,0.8,4.7
			c-1.3,2-0.4,3.9-0.8,5.8c-0.7-0.4-1.4-0.9-2-1.5c-3.9-4.3-7.8-8.5-11.7-12.8c-1.4-1.6-2.8-3.3-4.1-4.8c0-7.6,0-14.8,0-22.1
			C133.2,62,133.6,60.9,132.2,60.8z"/>
		<path class="st13" d="M101.8,209.8h1.9c0-1.8,0.1-3.7,0.2-5.5s0-3.5,0-5.5l4.3-5.7c2.1,0.8,2,2.3,2,3.8c0,10.9,0,21.9,0,32.9
			l-7.3-7.3c0.3-0.1,0.8-0.2,0.8-0.4c0-3.6,0-7.2,0-10.8c0-0.1-0.6-0.2-0.8-0.4L101.8,209.8z"/>
		<path class="st14" d="M79.7,119.6h3c0.1,0.8,0.2,1.6,0.2,2.4c0,18.6,0,37.2,0,55.8c0,1.7,0.1,3.4-1.1,4.8l-2.1-1.1L79.7,119.6
			L79.7,119.6z"/>
		<path class="st15" d="M110.1,229.8h1.7c0.2-0.4,0.3-0.9,0.4-1.4c0-9.2,0-18.5,0-27.7c0-1.3,0.3-2.6-0.8-3.9
			c-0.6-0.8,0.1-2.5,0.3-3.8c0.1-0.8,0.4-1.6,0.7-2.9l2.9-2.5c0.3,0.1,0.5,0.3,0.8,0.4c0.1,0.1,0.3,0.3,0.3,0.4c0,14.5,0,29,0,43.4
			c-2-0.4-4-0.8-6-1.3C110.3,230.6,110.3,230.1,110.1,229.8z"/>
		<path class="st16" d="M140.6,57.7c2.1-0.2,3.4,1.6,5.3,2.1V80c1.8,2.2,3.4,4,5.2,6.2v-3.3c2,0.6,1.3,2.7,0.9,3.2
			c-1.5,2.4-0.7,4.8-0.9,7.3c-2.4-0.5-2.2-3.2-3.8-4.4c-2.4-2-4.5-4.3-6.7-6.5V57.7z"/>
		<path class="st17" d="M96.5,89.2c0,3.5-0.1,7,0,10.5c0.3,8.8,0.8,17.5,1,26.3s-0.1,17.8,0.1,26.7c0,2.4,0.8,4.9,1.3,7.6
			c-2.4,0.4-4.4,0.9-5.6-1.6l1-5.9c0.3-1.9,0.8-3.9,1-5.9s0-4.2,0-6.3c0-12.2-0.2-24.5,0.1-36.7c0.1-4.7-1.3-9.1-1.1-13.7l1-1
			L96.5,89.2z"/>
		<path class="st18" d="M151.1,176.3v2.6c-6.1-5.4-11.6-10.4-17.3-15.1c-5.1-4.2-10.3-8.3-15-12.9c-2-1.8-4.1-3.4-6.3-4.9
			c-2.1-0.2-2.1-0.2-4.2-1.5v-3.9l3.3-1.4c0.7,0.7,1.2,1.5,1.8,2.3c1.3,2.7,2.4,5.5,5.7,6.5c0.3,0.1,0.5,0.4,0.8,0.7
			c3.7,3.3,7.2,6.8,11,9.9c3.8,3.1,7.3,7,11.6,9.7c1.3,0.9,2.4,2,3.4,3.3c1.4,1.6,3.2,2.9,5.3,3.7L151.1,176.3z"/>
		<path class="st19" d="M137.4,133.2v-4c2-0.4,3.9-0.7,5.5,1.9l-2.3,5.2c0.3,2.7,3.3,3.3,5.5,4.9c-0.3-5.4-0.6-10.8-1-16.2l1.4-1.6
			l3.5,1.7v3.2l-2.1,2.1v12.8l3.1,2.4v3.3c-4.5-3.7-8.7-7-12.8-10.4c-0.7-0.7-1.3-1.5-1.9-2.4l2.2-1.9L137.4,133.2z"/>
		<path class="st20" d="M79.7,151.1v30.4c-1.9-0.9-3.7-2.2-6-2.3c-0.1,0-0.2-0.5-0.3-0.8h2.1c-0.1-8.3,0.1-16.2-0.1-24.1h-2
			C75.2,152.6,77.2,151.2,79.7,151.1z"/>
		<path class="st20" d="M79.7,119.6V150c-1.7,0.1-3.3-0.7-4.2-2.1c0-8.1,0-16.3,0-24.4c0-0.2-0.1-0.3-0.2-0.4
			c-0.1-0.1-0.2-0.3-0.4-0.4h-1.6c0.1-0.3,0.2-0.8,0.3-0.8C76,121.8,77.8,120.5,79.7,119.6z"/>
		<path class="st21" d="M89.2,91.3c1.8,0.2,1,1.6,1,2.4c0,11,0,22,0.1,33c0,3.4-0.6,6.8,1,10.1c0.5,1,0.1,2.4,0.1,3.7h-3.9l-1.5-1.5
			c0.4-1.5,0.4-3.2,1.2-4.6c1.1-1.8,1-3.5,1-5.4c0-12.6,0-25.1,0-37.7L89.2,91.3z"/>
		<path class="st22" d="M132.2,60.8c1.4,0,1,1.1,1,1.9c0,7.3,0,14.5,0,22.1c1.3,1.5,2.6,3.2,4.1,4.8c3.9,4.3,7.8,8.6,11.8,12.8
			c0.6,0.6,1.3,1.1,2,1.5v3.7l-19.9-21.4V63L132.2,60.8z"/>
		<path class="st23" d="M140.6,57.7v24.7c2.2,2.2,4.3,4.5,6.7,6.5c1.6,1.3,1.4,3.9,3.8,4.4V97l-12.6-14.3v-25L140.6,57.7z"/>
		<path class="st16" d="M135.3,221.4h2.1c0.4,2.4,0.9,4.9,1,7.3s0,5.2,0.1,7.7c0,0.2,0.4,0.5,0.7,0.8l1.4-0.4c0-3,0-5.9,0.1-8.8
			c0-0.5,0.6-0.9,1-1.3v11.5c-3.8,0.1-7.1-1-9.4-4.2c0.4-0.3,1-0.5,1-0.8c0.1-2,0.1-4.1,0.1-6.3l2.1-1.8L135.3,221.4z"/>
		<path class="st24" d="M73.4,178.4c-2.8-3-3.9-6.8-5.2-10.5c-0.6-1.7,0.2-3.5,0.9-5.3c1.2-2.9,2.2-5.9,4.3-8.3L73.4,178.4z"/>
		<path class="st25" d="M73.4,146.9c-3.2-4.4-5.6-9-5.3-14.7c1.4-0.2,2.4-1.5,2.1-3c0-0.1,0-0.1,0-0.2c0-0.2,0-0.3,0-0.5
			c-0.3-1.7,1.3-2.1,2-3.1c0.5-0.8-0.8-2.4,1.1-2.7L73.4,146.9z"/>
		<path class="st26" d="M124.8,229.8c-1.8-0.2-1-1.6-1-2.4c0-10.1,0-20.2,0-30.3v-30.3c1.4,0,1,1.1,1,1.9c0,7.2,0,14.3,0,21.5
			c0,12,0,24.1,0,36.1c0,0.8-0.7,2.2,1,2.4v1L124.8,229.8z"/>
		<path class="st27" d="M151.1,82.9v3.3c-1.9-2.2-3.4-4-5.2-6.2V59.8h1.1l1,1c0,4.2,0.2,8.3-0.1,12.4
			C147.5,76.8,148.7,80.3,151.1,82.9z"/>
		<path class="st28" d="M73.4,146.9v-24.1H75c0.1,0.1,0.3,0.2,0.4,0.4c0.1,0.1,0.2,0.3,0.2,0.4c0,8.1,0,16.3,0,24.4L73.4,146.9z"/>
		<path class="st29" d="M147.9,236.1H146c-0.5-3.3,0-6.7-0.4-10.6l-2.5-1.7l3.5-3.8l3.8,1.8c-0.9,2.4-2,4.4-2.4,6.6
			s-0.1,4.5-0.1,6.7L147.9,236.1z"/>
		<path class="st29" d="M135.3,221.4v3.7l-2.1,1.8c0,2.2,0,4.3-0.1,6.3c0,0.3-0.6,0.5-1,0.8c-0.9-1.2-1.2-2.7-1-4.2
			c-0.4-2.6-0.8-5.3-1.1-7.6C131.6,219.5,133.4,220.1,135.3,221.4z"/>
		<path class="st15" d="M96.5,210.9c1.8-2.4,0.7-5.2,1.2-8l3.7-3.5c0.8,1.7,0.2,3.6,0.3,5.3s0,3.4,0,5.1L96.5,210.9z"/>
		<path class="st30" d="M79.7,106l2.5-1.3l2.6,3.7c-0.7,1.8-1.7,3.5-3,5C80.9,110.9,79.6,108.7,79.7,106z"/>
		<path class="st31" d="M102.8,78.7h1.7c0.2,0.4,0.3,0.8,0.4,1.3c0,2-0.1,4.1,0.1,6.1c0.2,1.7,0.6,3.5,1,5.2h-1l-1.1-1
			C102.4,86.5,102.8,82.6,102.8,78.7z"/>
		<path class="st32" d="M102.8,210.9c0.3,0.1,0.8,0.2,0.8,0.4c0,3.6,0,7.2,0,10.8c0,0.1-0.6,0.2-0.8,0.4V210.9z"/>
		<path class="st33" d="M91.3,208.8l3.2-3.9v4.9L91.3,208.8z"/>
		<path class="st34" d="M70.3,129c0.3,1.4-0.5,2.8-1.9,3.1c-0.1,0-0.1,0-0.2,0c-0.3-1.4,0.5-2.8,1.9-3.1C70.2,129,70.2,129,70.3,129
			z"/>
		<path class="st35" d="M101.8,92.3c-1.6-0.1-0.9-1.3-1-2.1h2.1v1L101.8,92.3z"/>
		<path class="st36" d="M123.8,68.2l-1-1c0.8,0.2,2-0.5,2.1,1H123.8z"/>
		<path class="st37" d="M123.8,68.2h2.1l-1.3,1L123.8,68.2z"/>
		<path class="st38" d="M83.9,202.5l1-1v2.1h-1V202.5z"/>
		<path class="st39" d="M83.9,182.6c0.1-1.6,1.3-0.9,2.1-1.1v1.1H83.9z"/>
		<path class="st40" d="M102.8,91.3v-1h1l1.1,1H102.8z"/>
		<path class="st8" d="M95.5,89.2l-1,1L95.5,89.2z"/>
		<path class="st16" d="M147.9,60.8l-1-1L147.9,60.8z"/>
		<path class="st8" d="M109.1,70.3l1-1.1L109.1,70.3z"/>
		<path class="st41" d="M244.4,115.4l-2.1,2.9c2.1,0.3,4.2,0.8,6.3,1.3c1.4,0.5,2.7,1.2,3.8,2.2c2.7,2.3,5,5.1,6.7,8.2l-1,0.8l1,1.3
			c0.3,0.9,0.5,1.8,0.9,3.2c-4.9,13.5-4.7,10.6-11.4,15.3l5.3,3.6c-0.7,1.1-1.1,2.4-1.1,3.8c0.2,4.5,0.1,9.1,0.1,13.6
			c1.4,1,2,3.1,4.2,2.6c-1.6,2-3.3,3.8-5.1,5.6c-2.4,2.1-5.7,2-8.6,2.8c-0.8,0.1-1.7,0.2-2.5,0.1l3.7,3c-0.3,0.1-0.9,0.2-0.9,0.4
			c-0.1,5.1,0,10.2,0,15.4l1.9-1.1c0.3,1.4-0.3,2.2-1.8,2.3c-0.5,3.1-3.5,3.8-5.5,5.4c-2.5,2-5.7,2.1-8.7,2.7
			c-0.6,0.1-1.4-0.6-2.2-0.8c-0.9-0.1-1.8-0.2-2.7-0.2c0.4,2.9,1.2,5.5,0.9,8s-0.8,5-3,6.7V212h-3.8c-1.3,3.2-2,4.9-1.2,5.7
			c1.3,1.4,0.7,2.9,0.8,4.4c0.1,1.9,0,3.8,0.1,5.8c0,0.3,0.6,0.6,1,0.8c-5.1,3-10.9,4-15.7,2.6c0,0,0-0.3,0-0.5h8.2V212h-9.4
			c-0.4,1-0.7,2.1-0.9,3.2c-0.1,4.5,0,9,0,13.5l-4-2.6v4.4c-0.9,1.6-1.9,3.1-3.1,4.6c-1.2,1.1-2.5,2.1-3.9,3h-7.3
			c-2.3-2.1-4.7-4.2-5.8-7.3h8.4c0-6.3,0-12.2,0-18.1c0-0.2-0.1-0.3-0.2-0.4c-0.1-0.1-0.2-0.3-0.4-0.4h-8.9v-38.8
			c2.4,1.8,5.3,0.7,7.8,1.1l1.5-1.5v-18.5h-9.3v-38.8c2.4,1.8,5.3,0.8,7.8,1.1l1.5-1.5V96.5h-9.3c0-5,0.3-10.1-0.1-15.1
			c-0.4-4.8,1.1-9.4,1.2-14.1c0-1.2,0.8-2.4,1.6-4.5l4.6-4c0.8-0.2,2,0.5,2.1-1c1.8,0.4,3.6-0.4,5.4,0.6c2.8,1.4,5.3,2.7,6.2,6.1
			c0.4,1.6,2.1,2.9,2,4.8l-0.6,1.2l-0.8-2.1h-5.8v18.5h9.2c0-5.6,0-10.9,0-16.3c0-0.5-0.7-0.9-1-1.4c0.7-2,3.2-0.4,4.1-2.1
			c4.3,0.1,8.9-0.8,12.7,2.1c0,4.9-0.1,9.7,0,14.6c0.2,1.1,0.5,2.2,0.9,3.3c2.1,0,3.9,0,5.6,0c0.3,0,0.6-0.7,0.8-1h1.1
			c-0.2,0.8-0.4,1.5-0.7,2.3c-0.7,1.1-1.4,2.2-2.2,3.3c3.4-1,5.8-2.3,8.1-2.2c2.7,0.1,5.4,0.8,7.9,2c2.4,1.1,4.7,2.6,5.8,5.2l-2,5.9
			c2.1,3.7,0.4,7.8,1,11.6C243.5,114.5,244.1,115,244.4,115.4z M227.4,201.1v-17.1l-1.4-1.4c-2.8,0.6-6.1-1.1-8.8,1.3v17.4
			c2.7,2.4,6,0.7,8.8,1.3L227.4,201.1z M201.6,97.9v17.2l1.3,1.2h7.6l1.3-1.3V98c-2.2-1.5-2.2-1.5-8.9-1.4L201.6,97.9z M227.8,96.6
			v18.4l1.3,1.3h5.9l3-2.5c0-5,0-9.5-0.1-14c-0.2-1.1-0.4-2.2-0.9-3.2L227.8,96.6z M211.8,154.4h-9l-1.3,1.3v16.6
			c2.4,2.4,5.2,1.8,7.4,1.8l2.9-1.5V154.4z M253.8,127.6h-0.7l-1.6-2.6h-6.7l-1.5,1.5c0.2,6-0.2,12.2,0.2,18.3h8.7l1.5-1.5
			L253.8,127.6z M229.2,174.2h6.3l2.5-2.5v-16.1l-1.3-1.3h-8.9v18.4L229.2,174.2z M227.6,126c-3.8-2-7.2-1.5-10.4,0.4v16.8l1.5,1.6
			h7.4l1.5-1.5L227.6,126z M193.4,182.7c-0.4,0.4-1.1,0.8-1.1,1.2c-0.1,6.2,0,12.3,0,18.4h8.9c0-6.3,0-12.3-0.1-18.4
			c0-0.4-0.7-0.7-1.1-1.2H193.4z M192.1,126.3v18.3h9.2v-18.3L200,125h-6.5L192.1,126.3z M218.7,154.3c-1.3,2.2-2.5,4.6-1.2,7
			c0.6,1.2,0.8,2.6,0.7,3.9c0.1,2.8,0,5.5,0.1,8.3c0,0.3,0.4,0.5,0.8,1.1l3.2-1.4c0-6.5,0-12.5,0-18.5c0-0.1-0.2-0.2-0.4-0.4
			L218.7,154.3z M238,125.7l-3.6-1c-0.5,1.2-0.9,2.4-1.2,3.6c-0.2,1.1-0.7,2.8-0.2,3.4c1.4,1.6,0.8,3.3,0.9,4.9c0.1,2.7,0,5.4,0,8.2
			h4L238,125.7z M218.2,96.6c0.1,0.6,0.1,1.3,0,1.9c-0.9,2-1.9,3.9,0,6c0.4,0.5,0.1,1.7,0.1,2.6c0,2.8,0,5.5,0,8.3
			c0.1,0.4,0.2,0.7,0.4,1.1c0.6,0.1,1.3,0.1,1.9,0c0.6-0.4,1.2-0.8,1.7-1.3V96.6H218.2z M211.8,182.9c-1.6-0.8-3.3-0.5-3.5,0.9
			c-0.4,2-2.4,3.6-1.2,6c0.4,0.9,0.7,1.8,0.7,2.8c0.1,2.9,0,5.9,0.1,8.8c0.1,0.4,0.2,0.7,0.4,1.1l3.6-0.2V182.9z M234.2,182.1
			c-0.5,3-1.8,5.5-1.1,7.1c0.9,1.9,0.7,3.6,0.8,5.4c0.1,2.3,0,4.6,0.1,6.8c0.1,0.4,0.2,0.7,0.4,1c0.7,0.1,1.3,0.1,2,0
			c0.7-0.4,1.2-0.9,1.8-1.4v-17.4L234.2,182.1z M191.1,159.6c0.4,1.2,0.7,2.4,0.8,3.6c0.1,3.3,0,6.6,0.1,9.9
			c0.1,0.4,0.2,0.8,0.4,1.1l3.6-0.2v-19.6h-3.7C191.9,156.3,191.5,157.9,191.1,159.6L191.1,159.6z M211.7,144.7v-19.7
			c-1.6-0.3-3.2-0.2-3.6,1.2c-0.5,1.8-2.4,3.8-1.3,5.5c1,1.5,0.8,2.9,0.8,4.4c0.1,2.9,0,5.8,0,8.6H211.7z M191.8,116.3h4.1V96.7
			c-4.9-1-3.4,3.6-5.3,5.2c0.5,0.6,1.1,1,1.1,1.3C191.9,107.5,191.8,111.8,191.8,116.3L191.8,116.3z M242.3,159.4
			c0.5,0.8,0.8,1.8,1,2.7c0.1,3.3,0,6.6,0.1,10c0.1,0.3,0.2,0.6,0.4,0.9c0.4,0.4,0.7,1,1.1,1.1c0.8,0.1,1.6,0.2,2.5,0.2v-19.9
			C242.6,153.3,243.9,157.7,242.3,159.4L242.3,159.4z M180.6,188.3c0.4,0.7,0.6,1.4,0.8,2.1c0.1,3.6,0,7.3,0.1,10.9
			c0.1,0.4,0.2,0.8,0.4,1.1l3.7-0.2v-19.6h-2.7L180.6,188.3z M211.7,87V68.2l-3.9,0.2c-0.2,1.2-0.4,2-0.5,2.8
			c-0.2,1-0.9,2.4-0.6,2.7c1.6,1.5,0.8,3.3,0.9,4.9c0.1,2.7,0,5.4,0,8.2L211.7,87z M181.5,144.6h3.9v-19.7h-2.3
			c-1.6,3.3-1.6,3.3-1.6,6.1V144.6z M192.1,230.6h3.8v-18.5h-3.6c-0.4,1.9-0.8,3.6-1.2,5.3C193,221.6,191.3,226.1,192.1,230.6
			L192.1,230.6z M185.5,87V68.5c-1.9-1-3,0-4.1,1.3c-0.1,1.4,0.6,3.1-1,4.2c1.5,0.9,0.9,2.4,1,3.7c0.1,1.6,0,3.1,0,4.7V87H185.5z"/>
		<path class="st42" d="M201.4,228.7c0-4.5-0.1-9,0-13.5c0.2-1.1,0.5-2.2,0.9-3.2h9.4v18.8h-8.1c-0.5-0.3-0.9-0.7-1.3-1.1
			C201.9,229.4,201.6,229.1,201.4,228.7z M207.5,227.6v-12.4h-1.7v12.4L207.5,227.6z"/>
		<path class="st43" d="M176.2,96.5h9.3V115l-1.5,1.5c-2.6-0.3-5.4,0.7-7.8-1.1L176.2,96.5z M179.4,101.2c0,2.8,0.1,5.9,0,8.9
			c-0.1,2.6,1.3,2.2,3,1.9v-11.1l-0.6,0.4l-0.7-1.8L179.4,101.2z"/>
		<path class="st43" d="M176.2,154.2h9.3v18.5l-1.5,1.5c-2.6-0.4-5.4,0.7-7.8-1.1L176.2,154.2z M182.5,169.9c0-3.3,0.1-6.6-0.1-9.8
			c-0.1-0.9-0.9-1.8-1.6-3.3c-2.6,4.8-0.8,9-1.6,13.1H182.5z"/>
		<path class="st44" d="M176.2,211.9h8.9c0.1,0.1,0.3,0.2,0.4,0.4c0.1,0.1,0.2,0.3,0.2,0.4c0,5.9,0,11.8,0,18.1h-8.4
			c-1.5-3.9-1-8-1.1-12.1C176.2,216.4,176.2,214.2,176.2,211.9z M180.9,228.4c2.9-4.8,1-9.1,1.8-13.4l-3.5,0.3
			C180,219.5,178.3,223.7,180.9,228.4z"/>
		<path class="st45" d="M200.4,69.2c0.4,0.4,1,0.9,1,1.4c0.1,5.4,0,10.8,0,16.3h-9.2V68.3h5.7l0.8,2.1l0.6-1.2H200.4z M195.3,71.4
			v12.9l2.8-1.7V71.4H195.3z"/>
		<path class="st46" d="M257,174.2c-2.2,0.5-2.8-1.6-4.2-2.6c0-4.5,0.1-9.1-0.1-13.6c0-1.3,0.4-2.6,1.1-3.8l3.3,3.6v11.8l1.6,0.4
			c-0.2,1-0.4,2-0.6,3L257,174.2z"/>
		<path class="st45" d="M224.5,86c-0.3,0.3-0.5,1-0.8,1c-1.7,0.1-3.4,0-5.6,0c-0.4-1-0.8-2.1-0.9-3.3c-0.1-4.8,0-9.7,0-14.6l4.2,4.2
			c0,1.7,0,3.4,0,5.1s0.1,3.6,0.1,5.4h2C225,84,224.3,85.2,224.5,86z"/>
		<path class="st47" d="M219.2,228.7c-0.4-0.3-1-0.5-1-0.8c-0.1-1.9,0.1-3.9-0.1-5.8c-0.1-1.5,0.5-3-0.8-4.4
			c-0.8-0.8-0.1-2.5,1.2-5.7h3.8v12.5C222.5,226.8,220.9,227.8,219.2,228.7z"/>
		<path class="st48" d="M244.4,115.4c-0.4-0.4-0.9-0.9-1-1.3c-0.6-3.9,1.1-7.9-1-11.6l2-5.9c2,0.8,1.3,3.6,3.1,4.6
			C247.5,106.1,248.3,111.3,244.4,115.4z"/>
		<path class="st49" d="M245.5,200.4l-1.9,1.1c0-5.2,0-10.3,0-15.4c0-0.1,0.6-0.2,0.9-0.4c0.4,1.1,0.7,2.1,1.1,3.2
			C246.9,192.6,246.9,196.7,245.5,200.4z"/>
		<path class="st50" d="M223.4,83.9h-2c0-1.8-0.1-3.6-0.1-5.4s0-3.4,0-5.1c2,0.2,0.4,1.9,1,2.3l2.2,1.9c-0.4,0.4-1,0.8-1,1.3
			C223.4,80.6,223.4,82.3,223.4,83.9z"/>
		<path class="st51" d="M223.4,83.9c0-1.7-0.1-3.4,0-5c0-0.4,0.6-0.8,1-1.3c-0.1,2.8,1.8,5.4,1.1,8.4h-1.1
			C224.3,85.2,225,84,223.4,83.9z"/>
		<path class="st52" d="M185.7,57.7c-0.1,1.6-1.3,0.9-2.1,1C183.7,57.2,184.9,57.9,185.7,57.7z"/>
		<path class="st53" d="M259.1,132.2l-1-1.3l1-0.8V132.2z"/>
		<path class="st41" d="M257,174.2l1-1L257,174.2z"/>
		<path class="st19" d="M125.9,228.7c-1.8-0.2-1-1.6-1-2.4c0-12.1,0-24.1,0-36.1c0-7.2,0-14.3,0-21.5c0-0.8,0.4-1.9-1-1.9l-1-3.1
			l1-1l1,1l1,1.1l1,1l2.1,1.1l1,1.1l1.1,1l1,1.1c3.3,2.3,6.4,4.9,9.3,7.6c3,2.9,6.4,5.4,9.6,8.1v2.5l-2.6-1.1c0.1,0-0.1,0-0.1,0.1
			c0,8,0,16,0,24.3l2.3,5l-3.8,2l-1.9-1.7c2.1-10.1,0.8-20.6,1.2-31c-0.9-2.5-2.2-4.5-5.1-5.1v15.9l2.4,5.3l-3.5,2.4l-2.2-0.9
			c-0.6-4.1,1.5-8.1,1.1-12.4s-0.1-8.7-0.1-13.3l-5.2-3.7v13.9c0,3.7,0,7.3,0,11c0,2.9-0.4,5.7,1.7,8.2c0.6,0.8,0.3,2.3,0.4,3.4
			l-3.8,1.9l-1.3-3.4c1.5-4.8,0.7-11.4,0.8-17.8s0-12.9,0-19.6l-4.2-3.5l-0.3-0.9l-0.7,0.9L125.9,228.7z"/>
		<path class="st54" d="M151.1,114.4v3.4l-2.1-1.7l1.2,5.1l-2.3,1.7l-2.6-0.9c-0.3-0.7-0.6-1-0.6-1.3c0.4-2.6,0.8-5.3,1.3-7.8
			c-1.9-1.3-2.7-3.4-5.3-3.9v7.3l1.9,1.5v3.5l-3.4,1.7l-1.9-1.7c0.5-1.6-0.9-3.5,0.9-5.1c0.1-3.5,0.6-7,0-10.4
			c-0.4-2.5-2.2-4.6-4.7-5.2c-0.7,5-0.2,10-0.3,14.9s0,9.8,0,14.6c-0.2,0.8,0.5,2-1.1,2.1c-1.8-0.2-1-1.6-1-2.4
			c-0.1-9.3-0.2-18.5,0-27.8c0.1-3.5-0.9-6.3-3.7-8.5c-1.4-0.4-3.5,0.7-4.6-1.8v-3.6l3.7-1.4c2.7,6.8,8.6,10.4,12.7,15.6
			c3.1,4,6.7,7.3,10.1,11C150,113.7,150.5,114,151.1,114.4z"/>
		<path class="st55" d="M109.1,70.3l1-1.1h1.9c0.1,0.8,0.2,1.6,0.2,2.4c0,14.7,0,29.3,0,44c0,4.6,0.4,9.1,0.7,14.3l-1.6,1.2l-3-1.3
			c-0.1-0.3-0.4-0.6-0.3-0.9c2.1-11.5,0.7-23.1,1-34.7C109.3,86.3,109.1,78.3,109.1,70.3z"/>
		<path class="st26" d="M133.2,153.2c-3.1-1.8-5.9-4-8.3-6.6c-0.8-0.8-2-1.1-2.8-1.9c-2-2-3.9-4.2-5.7-6v-33.1c0-2.3,0.2-4.6,0-6.8
			c-0.3-1.9-0.7-3.8-1.2-5.7c2.7-2.2,2.7-2.2,5.3-0.4c0.7,2.5-0.2,4.6-1.9,6.6c0,10.8,0.3,21.8-0.1,32.8c-0.3,4.5,1.9,8.8,5.7,11.2
			c1.7,1.3,3.4,2.7,5,4.2c1.8,1.5,3.4,3.1,5.1,4.6L133.2,153.2z"/>
		<path class="st56" d="M108,151.1l-2-1.1l-2.1-1.6v28.9l-1,1l-1,1.1l-1,1l-1,1.1l-1.1,1.1l-1,1c-3.6,3-7.1,6.1-10.7,9.1
			c-1.5,1.2-3,2.3-5,3.9V193c0.9,0.1,1.8-0.3,2.3-1c2.8-3.3,6.4-5.8,9.9-8.4l1-1l1-1.1l1-1.1l4.2-4.2c1.8-0.2,1-1.6,1-2.4
			c0.1-10.3,0-20.6,0-30.9c0-10.5,0-21,0-31.4c0-0.8,0.7-2.2-1-2.4v-1l-1-1c0.4-1-1-2.7,1-3.2l1-1h1l1.1,1l1,1v2l-1,1v1
			c-1.7,0.2-1,1.5-1,2.4c0,9,0,18,0,27v5.2c0.2,0.8-0.5,2,1.1,2.1l2.1,2.1l1.1,1l1,1.1L108,151.1z"/>
		<path class="st57" d="M86,182.6v-1.1c1.5-2.4,2.3-5.2,2.1-8.1c-0.2-7.2,0-14.3,0-20.8l-2.5-6.8c2.8-2.4,2.8-2.4,5.7-0.6
			c-2.1,10-0.6,20.4-1.2,30.8c2.5-1.8,2.5-1.8,3.3-3.9c1-2.6,2.1-2.8,5.1-0.7v3.9c-4,0.9-7.3,3.5-10.4,6.2l-1,1.1H86z"/>
		<path class="st26" d="M123.8,162.6l-1,1c-1.3-0.6-2.5-1.7-4.3-0.6l2.6,6l-3.5,2.5l-1.9-1.1c0.4-3.6,0.8-7.5,1.2-11.4
			c-1.5-1.4-2.8-2.6-4.3-4c-0.1,1.4-0.2,2.7-0.2,4c0,6.5,0,12.9,0,19.4c0,0.8,0.4,1.9-1,1.9h-1c0-8.6,0-17.3,0-25.9
			c0-0.8-0.7-2.2,1-2.4c2,0.8,3.8,2.1,5.3,3.7C118.8,158.1,121.3,160.4,123.8,162.6z"/>
		<path class="st58" d="M131.1,141.6c-1.3-0.7-2.6-1.4-3.8-2.3c-2.3-1.7-3.7-4.5-3.6-7.4c0.2-5.9,0.1-11.9,0-17.8
			c-0.1-4.4,0.7-8.9-1-13.2c-0.2-0.9-0.2-1.7,0-2.6l1.6-2l3.3,1.4c0.2,0.2,0.3,0.5,0.3,0.8c0,0.9,0.4,2,0,2.6c-2.6,3.6-2,7.7-2,11.7
			c0,5.6-0.1,11.2,0,16.8c0.1,2,0.5,3.9,1.1,5.8c0.3,0.8,1.4,1.3,2.1,1.9c1.1,1,2.1,2.1,3.1,3.1L131.1,141.6z"/>
		<path class="st59" d="M101.8,109.1c1.8,0.2,1,1.6,1,2.4c0.1,10.5,0,21,0,31.4c0,10.3,0,20.6,0,30.9c0,0.8,0.7,2.2-1,2.4V109.1z"/>
		<path class="st22" d="M131.1,141.6l1-1c3.7,2.6,7.2,5.6,10.4,8.7c2.6,2.6,5.6,4.7,8.5,7v1.9c-0.7,0.1-1.1,0.4-1.3,0.2
			c-3.1-2.6-6.2-5.2-9.2-7.8c-2.1-1.9-3.9-4.1-6.5-5.6C132.9,144.3,132.1,142.8,131.1,141.6z"/>
		<path class="st60" d="M133.2,153.2l1.1-1c3.3,2.3,6.4,4.9,9.4,7.7c2.4,2.1,4.8,4.1,7.4,5.9v3.4c-4.2-3.7-7.9-7.1-11.7-10.4
			C137.3,157,134.4,156,133.2,153.2z"/>
		<path class="st18" d="M116.4,67.1h1.8v6.5l0.5-0.1l2.3,6.1c-2.8,2.4-2.8,2.4-5.8,0.6c0.4-2,0.9-4.2,1.1-6.4S116.4,69.4,116.4,67.1
			z"/>
		<path class="st59" d="M111.2,152.1c-1.7,0.2-1,1.5-1,2.4c0,8.6,0,17.3,0,25.9h-1c0-8.4,0-16.7,0-25.1c0-1.5,0-3-1.1-4.3l1-1.1h1
			l1,1.1L111.2,152.1z"/>
		<path class="st59" d="M103.8,138.5c0-9,0-18,0-27c0-0.8-0.7-2.2,1-2.4c0,9,0,18,0,27C104.9,137,105.6,138.3,103.8,138.5z"/>
		<path class="st61" d="M132.2,132.2c1.6-0.1,0.9-1.3,1.1-2.1l3.7,4.3l0.5-1.1l1.1,1.3l-2.2,1.9L132.2,132.2z"/>
		<path class="st62" d="M102.8,91.3h3.2c-0.6,1.7-2.3,1.4-3.4,2.1c-0.3-0.3-0.5-0.7-0.8-1L102.8,91.3z"/>
		<path class="st59" d="M104.9,145.8c-1.6-0.1-0.9-1.3-1.1-2.1C105.4,143.8,104.7,145,104.9,145.8z"/>
		<path class="st59" d="M100.7,107l1,1L100.7,107z"/>
		<path class="st26" d="M124.8,163.7l-1-1L124.8,163.7z"/>
		<path class="st26" d="M125.9,164.7l-1-1.1L125.9,164.7z"/>
		<path class="st26" d="M126.9,165.8l-1-1L126.9,165.8z"/>
		<path class="st26" d="M131.1,168.9l-1.1-1L131.1,168.9z"/>
		<path class="st11" d="M111.2,151.1l-1-1.1L111.2,151.1z"/>
		<path class="st59" d="M95.5,182.6l-1,1L95.5,182.6z"/>
		<path class="st39" d="M87.1,182.6l1-1.1L87.1,182.6z"/>
		<path class="st11" d="M110.1,150h-1v-1L110.1,150z"/>
		<path class="st59" d="M97.6,180.4l-1,1.1L97.6,180.4z"/>
		<path class="st11" d="M108,147.9l1,1h-1V147.9z"/>
		<path class="st59" d="M108,147.9v1l-1.1-1H108z"/>
		<path class="st39" d="M86,182.6h1l-0.7,0.9L86,182.6z"/>
		<path class="st26" d="M130.1,167.9l-1-1.1L130.1,167.9z"/>
		<path class="st59" d="M102.8,102.8l-1,1L102.8,102.8z"/>
		<path class="st59" d="M104.9,103.9l-1.1-1L104.9,103.9z"/>
		<path class="st59" d="M106,104.9l-1-1L106,104.9z"/>
		<path class="st26" d="M132.2,170l-1-1.1L132.2,170z"/>
		<path class="st59" d="M104.9,108.1l1-1L104.9,108.1z"/>
		<path class="st59" d="M96.5,181.5l-1,1.1L96.5,181.5z"/>
		<path class="st63" d="M141.6,226.6c-0.4,0.4-1,0.9-1,1.3c-0.1,2.9-0.1,5.8-0.1,8.8l-1.4,0.4c-0.3-0.3-0.7-0.5-0.7-0.8
			c0-2.6,0.1-5.2-0.1-7.7s-0.7-4.9-1-7.3l3.6-1.4l1.7,3.3L141.6,226.6z"/>
		<path class="st26" d="M125.9,167.9l0.7-0.9l0.3,0.9H125.9z"/>
		<path class="st64" d="M109.1,180.4h2.1c-2.5,3.4-5.6,6.4-9.1,8.8c-2.9,2.1-5.6,4.4-8.1,7c-2.8,2.7-5.4,5.6-9,7.4v-2.1
			c1.6-1.4,3.1-2.8,4.7-4.2s2.9-2.9,4.5-4.2c1.1-1,2.4-1.8,3.5-2.7C101.5,187,105.3,183.7,109.1,180.4z"/>
		<path class="st59" d="M103.8,176.3v-11.5c0.3,0.1,0.8,0.2,0.8,0.4c0,3.6,0,7.2,0,10.8C104.7,176,104.1,176.1,103.8,176.3z"/>
		<path class="st59" d="M103.8,156.3v-7.9l2.2,1.6c-2,0.4-0.7,1.9-1,2.9S105.9,155.7,103.8,156.3z"/>
		<path class="st59" d="M98.6,182.6l1.1-1.1L98.6,182.6z"/>
		<path class="st59" d="M97.6,183.6l1-1L97.6,183.6z"/>
		<path class="st59" d="M99.7,181.5l1-1.1L99.7,181.5z"/>
		<path class="st59" d="M100.7,180.4l1-1L100.7,180.4z"/>
		<path class="st59" d="M102.8,178.4l1-1L102.8,178.4z"/>
		<path class="st28" d="M73.4,178.4v-24.1h2c0.3,7.9,0,15.8,0.1,24.1H73.4z"/>
		<path class="st65" d="M227.4,201.1l-1.4,1.4c-2.8-0.6-6.1,1.1-8.8-1.3v-17.4c2.7-2.4,6-0.7,8.8-1.3l1.4,1.4V201.1z M223.3,198.2
			v-11.3h-1.7v11.3H223.3z"/>
		<path class="st65" d="M201.6,97.9l1.3-1.3c6.7-0.2,6.7-0.2,8.9,1.4v17l-1.3,1.3h-7.6l-1.3-1.2V97.9z M207.5,112.2V99.8h-1.7v12.4
			L207.5,112.2z"/>
		<path class="st66" d="M227.8,96.6h9.4c0.4,1,0.7,2.1,0.9,3.2c0.1,4.6,0.1,9.1,0.1,14l-3,2.5h-5.9l-1.3-1.3L227.8,96.6z
			 M233.8,112.2v-11.2l-0.7,0.5l-0.6-1.9l-0.5,0.4v12.3L233.8,112.2z"/>
		<path class="st67" d="M211.8,154.4v18.3l-2.9,1.5c-2.3,0-5,0.6-7.4-1.8v-16.6l1.3-1.3L211.8,154.4z M207.5,169.9v-12.4h-1.7v12.4
			H207.5z"/>
		<path class="st66" d="M253.8,127.6v15.7l-1.5,1.5h-8.7c-0.4-6.2-0.1-12.4-0.2-18.3l1.5-1.5h6.7l1.6,2.6L253.8,127.6z M249.7,141.6
			c0-2.9,0-5.8,0-8.6c0-1.3-0.1-2.6-0.2-4.1l-2.1,0.4c0.3,4.2,0.5,8.2,0.8,12.3H249.7z"/>
		<path class="st68" d="M229.2,174.2l-1.4-1.4v-18.4h8.9l1.3,1.3v16.1l-2.5,2.5H229.2z M233.8,169.9v-12.4H232v12.4H233.8z"/>
		<path class="st42" d="M227.6,126v17.3l-1.5,1.5h-7.4l-1.5-1.6v-16.8C220.4,124.5,223.8,124,227.6,126z M221.3,129
			c0,2.9,0,5.8,0,8.6c0,1.3,0.1,2.6,0.2,4.1l2.2-0.4c-0.3-4.2-0.5-8.2-0.8-12.3L221.3,129z"/>
		<path class="st45" d="M193.4,182.6h6.5c0.5,0.5,1.1,0.8,1.1,1.2c0.1,6,0.1,12.1,0.1,18.4h-8.9c0-6.1,0-12.3,0-18.4
			C192.3,183.4,193,183.1,193.4,182.6z M195.3,186.8v11.4h2.8v-11.4H195.3z"/>
		<path class="st69" d="M192.1,126.3l1.3-1.3h6.6l1.3,1.3v18.2h-9.2V126.3z M196.8,142.5c0.8-1.8,1.4-2.7,1.4-3.6
			c0.1-2.6-0.1-5.2,0.1-7.8s-1.3-2.2-3.3-1.8C195.8,133.3,193.9,137.6,196.8,142.5L196.8,142.5z"/>
		<path class="st70" d="M218.7,154.2h3.1c0.1,0.1,0.4,0.2,0.4,0.4c0,6,0,12.1,0,18.5l-3.2,1.4c-0.4-0.6-0.8-0.8-0.8-1.1
			c0-2.8,0-5.5-0.1-8.3c0.1-1.3-0.1-2.7-0.7-3.9C216.2,158.9,217.4,156.4,218.7,154.2z"/>
		<path class="st71" d="M238,125.7v19h-4c0-2.7,0.1-5.4,0-8.2c-0.1-1.6,0.5-3.3-0.9-4.9c-0.5-0.6-0.1-2.3,0.2-3.4
			c0.3-1.2,0.7-2.4,1.2-3.6L238,125.7z"/>
		<path class="st72" d="M218.2,96.6h4v18.4c-0.5,0.5-1.1,1-1.7,1.3c-0.6,0.1-1.3,0.1-1.9,0c-0.2-0.3-0.3-0.7-0.4-1.1
			c0-2.8,0-5.5,0-8.3c0-0.9,0.4-2.1-0.1-2.6c-1.9-2.1-0.9-4,0-6C218.2,97.9,218.2,97.2,218.2,96.6z"/>
		<path class="st73" d="M211.8,182.9v19.4l-3.6,0.2c-0.2-0.3-0.3-0.7-0.4-1.1c0-2.9,0-5.9-0.1-8.8c0-1-0.2-1.9-0.7-2.8
			c-1.2-2.4,0.9-4,1.2-6C208.5,182.4,210.2,182.1,211.8,182.9z"/>
		<path class="st74" d="M234.2,182.1l3.9,1.5V201c-0.5,0.6-1.1,1-1.8,1.4c-0.7,0.1-1.3,0.1-2,0c-0.2-0.3-0.3-0.6-0.4-1
			c0-2.3,0.1-4.6-0.1-6.8c-0.1-1.8,0.1-3.5-0.8-5.4C232.4,187.6,233.6,185.1,234.2,182.1z"/>
		<path class="st43" d="M191.1,159.6c0.4-1.7,0.8-3.2,1.2-5.1h3.7V174l-3.6,0.2c-0.2-0.4-0.3-0.7-0.4-1.1c0-3.3,0.1-6.6-0.1-9.9
			C191.8,161.9,191.5,160.7,191.1,159.6z"/>
		<path class="st43" d="M211.7,144.7h-4c0-2.9,0.1-5.8,0-8.6c0-1.5,0.2-2.8-0.8-4.4c-1.1-1.7,0.8-3.7,1.3-5.5c0.4-1.4,2-1.5,3.6-1.2
			L211.7,144.7z"/>
		<path class="st69" d="M191.8,116.3c0-4.5,0-8.8,0-13.1c0-0.4-0.6-0.8-1.1-1.3c1.9-1.6,0.4-6.2,5.3-5.2v19.6L191.8,116.3z"/>
		<path class="st75" d="M242.3,159.4c1.6-1.7,0.3-6.1,5-5v19.8c-0.8,0-1.6,0-2.5-0.2c-0.4-0.1-0.8-0.7-1.1-1.1
			c-0.2-0.3-0.3-0.6-0.4-0.9c0-3.3,0-6.6-0.1-10C243.1,161.1,242.7,160.2,242.3,159.4z"/>
		<path class="st76" d="M180.6,188.3l2.2-5.6h2.7v19.6l-3.7,0.2c-0.2-0.4-0.3-0.7-0.4-1.1c0-3.6,0-7.3-0.1-10.9
			C181.3,189.7,181,189,180.6,188.3z"/>
		<path class="st77" d="M211.7,87h-4c0-2.8,0.1-5.5,0-8.2c-0.1-1.6,0.7-3.4-0.9-4.9c-0.4-0.3,0.4-1.8,0.6-2.7
			c0.2-0.8,0.3-1.6,0.5-2.8l3.9-0.2L211.7,87z"/>
		<path class="st78" d="M181.5,144.6v-13.7c0-2.7,0-2.7,1.6-6.1h2.3v19.7H181.5z"/>
		<path class="st79" d="M192.1,230.6c-0.8-4.5,0.8-9-1-13.2c0.4-1.7,0.8-3.4,1.2-5.3h3.6v18.6H192.1z"/>
		<path class="st78" d="M185.5,87h-4.1v-4.6c0-1.6,0.1-3.1,0-4.7c-0.1-1.3,0.5-2.8-1-3.7c1.6-1.1,0.9-2.8,1-4.2
			c1-1.2,2.1-2.3,4.1-1.3V87z"/>
		<path class="st80" d="M207.5,227.6h-1.7v-12.4h1.7V227.6z"/>
		<path class="st81" d="M179.4,101.2l1.7-1.7l0.7,1.8l0.6-0.4V112c-1.8,0.4-3.2,0.7-3-1.9C179.5,107.1,179.4,104,179.4,101.2z"/>
		<path class="st82" d="M182.5,169.9h-3.3c0.7-4.1-1-8.4,1.6-13.1c0.8,1.5,1.6,2.4,1.6,3.3C182.6,163.3,182.5,166.5,182.5,169.9z"/>
		<path class="st83" d="M180.9,228.4c-2.6-4.7-0.9-8.9-1.7-13.1l3.5-0.3C181.8,219.4,183.8,223.6,180.9,228.4z"/>
		<path class="st84" d="M195.3,71.4h2.8v11.2l-2.8,1.7V71.4z"/>
		<path class="st59" d="M108,149h1v1L108,149z"/>
		<path class="st85" d="M223.3,198.2h-1.7v-11.3h1.7V198.2z"/>
		<path class="st85" d="M207.5,112.2h-1.7V99.8h1.7V112.2z"/>
		<path class="st86" d="M233.8,112.2H232V99.9l0.5-0.4l0.6,1.9l0.7-0.5L233.8,112.2z"/>
		<path class="st80" d="M207.5,169.9h-1.7v-12.4h1.7V169.9z"/>
		<path class="st87" d="M249.6,141.6h-1.5c-0.3-4.1-0.5-8.1-0.8-12.3l2.1-0.4c0.1,1.4,0.2,2.8,0.2,4.1
			C249.7,135.9,249.6,138.8,249.6,141.6z"/>
		<path class="st88" d="M233.8,169.9H232v-12.4h1.8L233.8,169.9z"/>
		<path class="st89" d="M221.3,129h1.6c0.3,4.1,0.5,8.1,0.8,12.3l-2.2,0.4c-0.1-1.4-0.1-2.8-0.2-4.1
			C221.3,134.8,221.3,131.9,221.3,129z"/>
		<path class="st90" d="M195.3,186.8h2.8v11.4h-2.8V186.8z"/>
		<path class="st84" d="M196.8,142.5c-2.9-4.9-1-9.1-1.8-13.1c2-0.4,3.5-0.8,3.3,1.8s0.1,5.2-0.1,7.8
			C198.1,139.8,197.5,140.7,196.8,142.5z"/>
	</g>
</g>
</svg>
